<?xml version="1.0" standalone="no"?>
<!DOCTYPE svg PUBLIC "-//W3C//DTD SVG 20010904//EN"
 "http://www.w3.org/TR/2001/REC-SVG-20010904/DTD/svg10.dtd">
<svg version="1.0" xmlns="http://www.w3.org/2000/svg"
 width="512.000000pt" height="512.000000pt" viewBox="0 0 512.000000 512.000000"
 preserveAspectRatio="xMidYMid meet">
<metadata>
Created by potrace 1.11, written by Peter Selinger 2001-2013
</metadata>
<g transform="translate(0.000000,512.000000) scale(0.100000,-0.100000)"
fill="#000000" stroke="none">
<path d="M2247 4185 c-21 -8 -62 -18 -90 -21 -29 -4 -61 -13 -72 -20 -11 -8
-30 -14 -43 -14 -53 0 -81 -42 -47 -70 8 -7 15 -18 15 -25 0 -7 9 -24 20 -38
11 -14 20 -37 20 -51 0 -22 -5 -26 -27 -26 -16 -1 -53 -9 -83 -20 -30 -11 -72
-19 -92 -20 -28 0 -38 -5 -43 -20 -9 -28 3 -91 24 -134 37 -71 133 -178 194
-214 15 -9 27 -20 27 -24 0 -15 30 -8 65 15 19 12 35 25 35 29 0 4 -13 14 -29
23 -86 44 -208 175 -214 228 -2 18 4 23 28 25 29 2 101 17 137 28 12 4 22 -5
33 -28 23 -50 132 -246 148 -265 14 -19 106 -17 113 2 7 16 5 20 -31 80 -13
22 -31 54 -39 70 -9 17 -19 37 -24 45 -26 46 -33 58 -47 85 -8 17 -19 38 -25
48 -5 9 -15 25 -20 35 -6 9 -17 31 -25 47 -9 17 -24 45 -35 63 l-20 33 37 16
c21 9 72 19 113 24 41 4 95 12 120 18 25 6 113 11 195 11 83 0 170 -5 195 -11
25 -6 79 -14 120 -19 41 -4 92 -15 112 -24 l38 -16 -20 -33 c-11 -17 -26 -45
-35 -62 -14 -30 -21 -41 -44 -80 -6 -11 -18 -33 -26 -50 -15 -30 -25 -48 -45
-82 -6 -10 -17 -31 -26 -48 -8 -16 -26 -48 -39 -70 -36 -60 -38 -64 -31 -80 7
-19 99 -21 113 -2 14 17 92 156 150 270 8 15 15 27 16 27 1 0 27 -7 57 -15 30
-8 69 -15 87 -15 17 0 34 -4 38 -10 17 -28 -81 -158 -153 -201 -20 -12 -38
-23 -38 -23 -1 -1 -5 -11 -8 -23 -7 -22 -5 -23 42 -23 73 0 109 23 182 118 44
58 67 105 75 152 10 61 0 80 -43 80 -20 1 -62 9 -92 20 -30 11 -67 19 -82 20
-23 0 -28 4 -28 26 0 14 9 37 20 51 11 14 20 31 20 38 0 7 7 18 15 25 34 28 6
70 -47 70 -13 0 -32 6 -43 14 -11 7 -43 16 -72 20 -29 4 -71 13 -94 21 -59 21
-575 20 -632 0z"/>
<path d="M2913 3429 c-47 -14 -48 -26 -4 -34 22 -4 45 -13 52 -21 6 -8 16 -14
22 -14 10 0 200 -133 226 -159 9 -9 30 -26 46 -39 35 -27 152 -141 246 -239
94 -98 309 -377 309 -401 0 -5 9 -17 20 -27 11 -10 20 -24 20 -32 0 -7 4 -13
9 -13 5 0 14 -12 21 -27 16 -39 47 -94 59 -106 6 -6 11 -17 11 -25 0 -8 9 -25
20 -39 11 -14 20 -34 20 -43 0 -10 7 -23 15 -30 8 -7 15 -21 15 -32 0 -11 7
-32 15 -46 22 -40 46 -111 56 -167 4 -27 13 -68 18 -90 15 -59 13 -195 -4
-251 -8 -27 -15 -58 -15 -68 0 -17 -23 -68 -66 -148 -22 -41 -146 -150 -200
-177 -27 -13 -65 -32 -85 -42 -20 -11 -45 -19 -55 -19 -11 0 -28 -7 -38 -15
-11 -8 -32 -15 -48 -15 -15 0 -50 -9 -78 -20 -28 -11 -68 -20 -90 -20 -21 0
-51 -5 -67 -11 -15 -6 -89 -15 -163 -20 -74 -5 -182 -13 -240 -18 -136 -13
-654 -13 -790 0 -58 5 -166 13 -240 18 -74 5 -148 14 -163 20 -16 6 -46 11
-67 11 -22 0 -62 9 -90 20 -28 11 -63 20 -78 20 -16 0 -37 7 -48 15 -10 8 -27
15 -37 15 -10 0 -35 9 -55 19 -20 11 -59 30 -86 43 -52 25 -182 138 -197 172
-6 12 -23 44 -39 71 -16 28 -29 61 -30 75 0 14 -7 47 -15 74 -17 57 -20 205
-4 256 5 19 14 58 19 85 10 58 46 165 60 179 6 6 10 20 10 32 0 12 7 27 15 34
8 7 15 20 16 29 0 9 13 39 29 66 16 28 36 64 45 80 8 17 19 37 24 45 5 8 12
22 15 30 8 22 132 196 206 291 68 86 89 118 138 209 16 30 46 82 66 115 20 34
31 62 25 64 -16 5 -171 -162 -296 -319 -38 -48 -113 -152 -113 -157 0 -3 -13
-22 -29 -42 -28 -36 -70 -104 -127 -209 -44 -82 -49 -93 -67 -135 -9 -20 -23
-52 -31 -70 -24 -50 -47 -118 -57 -165 -5 -24 -15 -63 -24 -88 -11 -32 -15
-87 -15 -198 0 -136 3 -162 24 -227 32 -96 50 -132 103 -201 49 -65 165 -160
223 -183 8 -4 33 -14 55 -24 104 -47 117 -51 235 -81 22 -5 59 -15 83 -21 23
-6 80 -15 127 -19 47 -5 119 -16 160 -24 111 -24 1139 -24 1250 0 41 8 113 19
160 24 47 4 104 13 128 19 23 6 60 15 82 21 118 30 131 34 235 81 22 10 47 20
55 24 58 23 174 118 223 183 53 69 71 105 103 201 21 65 24 92 24 226 0 125
-4 164 -20 215 -11 34 -20 72 -20 84 0 12 -7 31 -15 42 -8 10 -15 28 -15 38 0
10 -9 40 -21 65 -12 25 -28 62 -36 81 -8 19 -20 44 -26 55 -95 176 -134 243
-168 286 -16 20 -29 41 -29 47 0 5 -7 15 -15 22 -8 6 -30 36 -50 65 -19 30
-41 60 -48 67 -6 7 -37 42 -67 78 -121 143 -277 299 -385 386 -33 26 -62 50
-65 53 -3 3 -18 15 -35 27 -16 11 -54 37 -83 58 -57 40 -128 53 -189 35z"/>
<path d="M2190 3416 c0 -21 15 -28 46 -20 26 7 26 8 9 20 -25 18 -55 18 -55 0z"/>
<path d="M1946 3246 c-38 -45 -43 -56 -26 -56 14 0 79 72 80 88 0 23 -19 12
-54 -32z"/>
<path d="M1705 3130 c-3 -5 -1 -10 4 -10 6 0 11 5 11 10 0 6 -2 10 -4 10 -3 0
-8 -4 -11 -10z"/>
<path d="M2498 2875 c-233 -57 -424 -231 -515 -467 -26 -69 -27 -82 -27 -228
0 -146 1 -159 27 -228 75 -195 208 -339 391 -422 96 -44 176 -60 301 -60 125
0 205 16 301 60 183 83 316 227 391 422 26 69 27 82 27 228 0 146 -1 159 -27
228 -91 239 -284 411 -520 467 -78 18 -272 18 -349 0z m367 -21 c144 -39 296
-141 382 -257 102 -139 138 -251 137 -422 0 -102 -5 -132 -27 -200 -82 -247
-284 -427 -539 -479 -238 -49 -480 24 -653 198 -82 84 -135 170 -172 281 -22
68 -27 98 -27 200 -1 171 35 283 137 422 105 141 283 246 472 277 54 8 229 -3
290 -20z"/>
<path d="M2790 2265 c-190 -190 -350 -345 -356 -345 -6 0 -71 61 -144 136
l-133 136 -39 -39 c-23 -24 -37 -45 -33 -54 3 -8 82 -90 175 -184 l169 -170
178 175 c98 96 277 273 398 392 l220 217 -40 41 c-21 22 -42 40 -45 40 -3 0
-160 -155 -350 -345z"/>
</g>
</svg>
